<mxfile host="app.diagrams.net" agent="Mozilla/5.0 (Windows NT 10.0; Win64; x64) AppleWebKit/537.36 (KHTML, like Gecko) Chrome/136.0.0.0 Safari/537.36" version="26.2.14">
  <diagram name="Page-1" id="gLbh3OFSFKKdITn1auYc">
    <mxGraphModel dx="1281" dy="570" grid="1" gridSize="10" guides="1" tooltips="1" connect="1" arrows="1" fold="1" page="1" pageScale="1" pageWidth="850" pageHeight="1100" math="0" shadow="0">
      <root>
        <mxCell id="0" />
        <mxCell id="1" parent="0" />
        <mxCell id="UB9DZYSupl-qanN3jUrm-2" style="edgeStyle=orthogonalEdgeStyle;rounded=0;orthogonalLoop=1;jettySize=auto;html=1;entryX=0;entryY=0.5;entryDx=0;entryDy=0;" edge="1" parent="1" source="UB9DZYSupl-qanN3jUrm-1" target="UB9DZYSupl-qanN3jUrm-3">
          <mxGeometry relative="1" as="geometry">
            <mxPoint x="220" y="190" as="targetPoint" />
          </mxGeometry>
        </mxCell>
        <mxCell id="UB9DZYSupl-qanN3jUrm-1" value="Actor" style="shape=umlActor;verticalLabelPosition=bottom;verticalAlign=top;html=1;outlineConnect=0;" vertex="1" parent="1">
          <mxGeometry x="100" y="160" width="30" height="60" as="geometry" />
        </mxCell>
        <mxCell id="UB9DZYSupl-qanN3jUrm-3" value="Hotel Review Platform" style="rounded=0;whiteSpace=wrap;html=1;" vertex="1" parent="1">
          <mxGeometry x="260" y="160" width="120" height="60" as="geometry" />
        </mxCell>
        <mxCell id="UB9DZYSupl-qanN3jUrm-4" value="" style="outlineConnect=0;dashed=0;verticalLabelPosition=bottom;verticalAlign=top;align=center;html=1;shape=mxgraph.aws3.s3;fillColor=#E05243;gradientColor=none;" vertex="1" parent="1">
          <mxGeometry x="500" y="144" width="76.5" height="93" as="geometry" />
        </mxCell>
        <mxCell id="UB9DZYSupl-qanN3jUrm-5" style="edgeStyle=orthogonalEdgeStyle;rounded=0;orthogonalLoop=1;jettySize=auto;html=1;entryX=0;entryY=0.5;entryDx=0;entryDy=0;entryPerimeter=0;" edge="1" parent="1" source="UB9DZYSupl-qanN3jUrm-3" target="UB9DZYSupl-qanN3jUrm-4">
          <mxGeometry relative="1" as="geometry" />
        </mxCell>
        <mxCell id="UB9DZYSupl-qanN3jUrm-12" style="edgeStyle=orthogonalEdgeStyle;rounded=0;orthogonalLoop=1;jettySize=auto;html=1;entryX=0;entryY=0.5;entryDx=0;entryDy=0;" edge="1" parent="1" source="UB9DZYSupl-qanN3jUrm-6" target="UB9DZYSupl-qanN3jUrm-11">
          <mxGeometry relative="1" as="geometry" />
        </mxCell>
        <mxCell id="UB9DZYSupl-qanN3jUrm-6" value="Controller&amp;nbsp;" style="rounded=0;whiteSpace=wrap;html=1;" vertex="1" parent="1">
          <mxGeometry x="200" y="320" width="120" height="60" as="geometry" />
        </mxCell>
        <mxCell id="UB9DZYSupl-qanN3jUrm-10" style="edgeStyle=orthogonalEdgeStyle;rounded=0;orthogonalLoop=1;jettySize=auto;html=1;entryX=0;entryY=0.25;entryDx=0;entryDy=0;" edge="1" parent="1" source="UB9DZYSupl-qanN3jUrm-7" target="UB9DZYSupl-qanN3jUrm-6">
          <mxGeometry relative="1" as="geometry" />
        </mxCell>
        <mxCell id="UB9DZYSupl-qanN3jUrm-7" value="User hit API&amp;nbsp;&lt;div&gt;for processing&lt;/div&gt;" style="shape=umlActor;verticalLabelPosition=bottom;verticalAlign=top;html=1;outlineConnect=0;" vertex="1" parent="1">
          <mxGeometry x="100" y="310" width="30" height="60" as="geometry" />
        </mxCell>
        <mxCell id="UB9DZYSupl-qanN3jUrm-14" style="edgeStyle=orthogonalEdgeStyle;rounded=0;orthogonalLoop=1;jettySize=auto;html=1;entryX=0;entryY=0.5;entryDx=0;entryDy=0;" edge="1" parent="1" source="UB9DZYSupl-qanN3jUrm-9" target="UB9DZYSupl-qanN3jUrm-11">
          <mxGeometry relative="1" as="geometry" />
        </mxCell>
        <mxCell id="UB9DZYSupl-qanN3jUrm-9" value="Scheduler Every X hour" style="rounded=0;whiteSpace=wrap;html=1;" vertex="1" parent="1">
          <mxGeometry x="200" y="430" width="120" height="60" as="geometry" />
        </mxCell>
        <mxCell id="UB9DZYSupl-qanN3jUrm-15" style="edgeStyle=orthogonalEdgeStyle;rounded=0;orthogonalLoop=1;jettySize=auto;html=1;" edge="1" parent="1" source="UB9DZYSupl-qanN3jUrm-11" target="UB9DZYSupl-qanN3jUrm-4">
          <mxGeometry relative="1" as="geometry" />
        </mxCell>
        <mxCell id="UB9DZYSupl-qanN3jUrm-11" value="Process File" style="rounded=0;whiteSpace=wrap;html=1;" vertex="1" parent="1">
          <mxGeometry x="390" y="370" width="120" height="60" as="geometry" />
        </mxCell>
        <mxCell id="UB9DZYSupl-qanN3jUrm-16" value="" style="shape=cylinder3;whiteSpace=wrap;html=1;boundedLbl=1;backgroundOutline=1;size=15;" vertex="1" parent="1">
          <mxGeometry x="420" y="520" width="60" height="80" as="geometry" />
        </mxCell>
        <mxCell id="UB9DZYSupl-qanN3jUrm-17" style="edgeStyle=orthogonalEdgeStyle;rounded=0;orthogonalLoop=1;jettySize=auto;html=1;entryX=0.5;entryY=0;entryDx=0;entryDy=0;entryPerimeter=0;" edge="1" parent="1" source="UB9DZYSupl-qanN3jUrm-11" target="UB9DZYSupl-qanN3jUrm-16">
          <mxGeometry relative="1" as="geometry" />
        </mxCell>
        <mxCell id="UB9DZYSupl-qanN3jUrm-21" value="" style="edgeStyle=orthogonalEdgeStyle;rounded=0;orthogonalLoop=1;jettySize=auto;html=1;" edge="1" parent="1" source="UB9DZYSupl-qanN3jUrm-18" target="UB9DZYSupl-qanN3jUrm-20">
          <mxGeometry relative="1" as="geometry" />
        </mxCell>
        <mxCell id="UB9DZYSupl-qanN3jUrm-18" value="" style="sketch=0;points=[[0,0,0],[0.25,0,0],[0.5,0,0],[0.75,0,0],[1,0,0],[0,1,0],[0.25,1,0],[0.5,1,0],[0.75,1,0],[1,1,0],[0,0.25,0],[0,0.5,0],[0,0.75,0],[1,0.25,0],[1,0.5,0],[1,0.75,0]];outlineConnect=0;fontColor=#232F3E;fillColor=#8C4FFF;strokeColor=#ffffff;dashed=0;verticalLabelPosition=bottom;verticalAlign=top;align=center;html=1;fontSize=12;fontStyle=0;aspect=fixed;shape=mxgraph.aws4.resourceIcon;resIcon=mxgraph.aws4.managed_streaming_for_kafka;" vertex="1" parent="1">
          <mxGeometry x="570" y="361" width="78" height="78" as="geometry" />
        </mxCell>
        <mxCell id="UB9DZYSupl-qanN3jUrm-19" style="edgeStyle=orthogonalEdgeStyle;rounded=0;orthogonalLoop=1;jettySize=auto;html=1;entryX=0;entryY=0.5;entryDx=0;entryDy=0;entryPerimeter=0;" edge="1" parent="1" source="UB9DZYSupl-qanN3jUrm-11" target="UB9DZYSupl-qanN3jUrm-18">
          <mxGeometry relative="1" as="geometry" />
        </mxCell>
        <mxCell id="UB9DZYSupl-qanN3jUrm-20" value="Consumer" style="rounded=0;whiteSpace=wrap;html=1;" vertex="1" parent="1">
          <mxGeometry x="690" y="370" width="120" height="60" as="geometry" />
        </mxCell>
        <mxCell id="UB9DZYSupl-qanN3jUrm-22" style="edgeStyle=orthogonalEdgeStyle;rounded=0;orthogonalLoop=1;jettySize=auto;html=1;entryX=0.5;entryY=0;entryDx=0;entryDy=0;entryPerimeter=0;" edge="1" parent="1" source="UB9DZYSupl-qanN3jUrm-20" target="UB9DZYSupl-qanN3jUrm-16">
          <mxGeometry relative="1" as="geometry" />
        </mxCell>
      </root>
    </mxGraphModel>
  </diagram>
</mxfile>
